<svg xmlns="http://www.w3.org/2000/svg" viewBox="0 0 110 110" fill="none" aria-hidden="true"><path d="M55 25C37 16 23 19 9 24v66c16-6 30-4 46 3 16-7 30-9 46-3V24c-14-5-28-8-46 1Z" fill="#dbe5ef" stroke="#31434e" stroke-width="2"/><path d="M55 25v68" stroke="#31434e" stroke-width="2"/><path d="M17 35c11-3 20-2 29 2m-29 9c11-3 20-2 29 2m-29 9c11-3 20-2 29 2m-29 9c11-3 20-2 29 2" stroke="#93a4b0" stroke-width="2"/><path d="m68 38 21-3v30l-11-5-10 8Z" fill="#e9fa65" stroke="#637142"/><path d="m76 16 12-6m-21 4 2-10" stroke="#566d80" stroke-width="2"/></svg>
